<svg id="visual" viewBox="0 0 900 600" width="900" height="600" xmlns="http://www.w3.org/2000/svg" xmlns:xlink="http://www.w3.org/1999/xlink" version="1.1"><rect width="900" height="600" fill="#071f30"></rect><g><g transform="translate(577 32)"><path d="M0 -40.2L34.8 -20.1L34.8 20.1L0 40.2L-34.8 20.1L-34.8 -20.1Z" fill="none" stroke="#297EA6" stroke-width="2"></path></g><g transform="translate(301 310)"><path d="M0 -21L18.2 -10.5L18.2 10.5L0 21L-18.2 10.5L-18.2 -10.5Z" fill="none" stroke="#297EA6" stroke-width="2"></path></g><g transform="translate(232 398)"><path d="M0 -27L23.4 -13.5L23.4 13.5L0 27L-23.4 13.5L-23.4 -13.5Z" fill="none" stroke="#297EA6" stroke-width="2"></path></g><g transform="translate(202 235)"><path d="M0 -22L19.1 -11L19.1 11L0 22L-19.1 11L-19.1 -11Z" fill="none" stroke="#297EA6" stroke-width="2"></path></g><g transform="translate(625 380)"><path d="M0 -30L26 -15L26 15L0 30L-26 15L-26 -15Z" fill="none" stroke="#297EA6" stroke-width="2"></path></g><g transform="translate(115 488)"><path d="M0 -19L16.5 -9.5L16.5 9.5L0 19L-16.5 9.5L-16.5 -9.5Z" fill="none" stroke="#297EA6" stroke-width="2"></path></g><g transform="translate(741 412)"><path d="M0 -22L19.1 -11L19.1 11L0 22L-19.1 11L-19.1 -11Z" fill="none" stroke="#297EA6" stroke-width="2"></path></g><g transform="translate(52 419)"><path d="M0 -21L18.2 -10.5L18.2 10.5L0 21L-18.2 10.5L-18.2 -10.5Z" fill="none" stroke="#297EA6" stroke-width="2"></path></g><g transform="translate(121 349)"><path d="M0 -26L22.5 -13L22.5 13L0 26L-22.5 13L-22.5 -13Z" fill="none" stroke="#297EA6" stroke-width="2"></path></g><g transform="translate(666 71)"><path d="M0 -15L13 -7.5L13 7.5L0 15L-13 7.5L-13 -7.5Z" fill="none" stroke="#297EA6" stroke-width="2"></path></g><g transform="translate(497 368)"><path d="M0 -33L28.6 -16.5L28.6 16.5L0 33L-28.6 16.5L-28.6 -16.5Z" fill="none" stroke="#297EA6" stroke-width="2"></path></g><g transform="translate(192 597)"><path d="M0 -33L28.6 -16.5L28.6 16.5L0 33L-28.6 16.5L-28.6 -16.5Z" fill="none" stroke="#297EA6" stroke-width="2"></path></g><g transform="translate(518 208)"><path d="M0 -24L20.8 -12L20.8 12L0 24L-20.8 12L-20.8 -12Z" fill="none" stroke="#297EA6" stroke-width="2"></path></g><g transform="translate(416 370)"><path d="M0 -28L24.2 -14L24.2 14L0 28L-24.2 14L-24.2 -14Z" fill="none" stroke="#297EA6" stroke-width="2"></path></g><g transform="translate(194 11)"><path d="M0 -16L13.9 -8L13.9 8L0 16L-13.9 8L-13.9 -8Z" fill="none" stroke="#297EA6" stroke-width="2"></path></g><g transform="translate(597 132)"><path d="M0 -23L19.9 -11.5L19.9 11.5L0 23L-19.9 11.5L-19.9 -11.5Z" fill="none" stroke="#297EA6" stroke-width="2"></path></g><g transform="translate(355 242)"><path d="M0 -26L22.5 -13L22.5 13L0 26L-22.5 13L-22.5 -13Z" fill="none" stroke="#297EA6" stroke-width="2"></path></g><g transform="translate(788 126)"><path d="M0 -39L33.8 -19.5L33.8 19.5L0 39L-33.8 19.5L-33.8 -19.5Z" fill="none" stroke="#297EA6" stroke-width="2"></path></g><g transform="translate(845 366)"><path d="M0 -17L14.7 -8.5L14.7 8.5L0 17L-14.7 8.5L-14.7 -8.5Z" fill="none" stroke="#297EA6" stroke-width="2"></path></g><g transform="translate(482 7)"><path d="M0 -16L13.9 -8L13.9 8L0 16L-13.9 8L-13.9 -8Z" fill="none" stroke="#297EA6" stroke-width="2"></path></g><g transform="translate(471 445)"><path d="M0 -19L16.5 -9.5L16.5 9.5L0 19L-16.5 9.5L-16.5 -9.5Z" fill="none" stroke="#297EA6" stroke-width="2"></path></g><g transform="translate(590 556)"><path d="M0 -35L30.3 -17.5L30.3 17.5L0 35L-30.3 17.5L-30.3 -17.5Z" fill="none" stroke="#297EA6" stroke-width="2"></path></g><g transform="translate(286 152)"><path d="M0 -37L32 -18.5L32 18.5L0 37L-32 18.5L-32 -18.5Z" fill="none" stroke="#297EA6" stroke-width="2"></path></g><g transform="translate(416 546)"><path d="M0 -20L17.3 -10L17.3 10L0 20L-17.3 10L-17.3 -10Z" fill="none" stroke="#297EA6" stroke-width="2"></path></g><g transform="translate(846 560)"><path d="M0 -34L29.4 -17L29.4 17L0 34L-29.4 17L-29.4 -17Z" fill="none" stroke="#297EA6" stroke-width="2"></path></g><g transform="translate(620 253)"><path d="M0 -24L20.8 -12L20.8 12L0 24L-20.8 12L-20.8 -12Z" fill="none" stroke="#297EA6" stroke-width="2"></path></g><g transform="translate(719 550)"><path d="M0 -16L13.9 -8L13.9 8L0 16L-13.9 8L-13.9 -8Z" fill="none" stroke="#297EA6" stroke-width="2"></path></g><g transform="translate(490 109)"><path d="M0 -18L15.6 -9L15.6 9L0 18L-15.6 9L-15.6 -9Z" fill="none" stroke="#297EA6" stroke-width="2"></path></g><g transform="translate(334 546)"><path d="M0 -33L28.6 -16.5L28.6 16.5L0 33L-28.6 16.5L-28.6 -16.5Z" fill="none" stroke="#297EA6" stroke-width="2"></path></g><g transform="translate(48 550)"><path d="M0 -31L26.8 -15.5L26.8 15.5L0 31L-26.8 15.5L-26.8 -15.5Z" fill="none" stroke="#297EA6" stroke-width="2"></path></g><g transform="translate(734 290)"><path d="M0 -17L14.7 -8.5L14.7 8.5L0 17L-14.7 8.5L-14.7 -8.5Z" fill="none" stroke="#297EA6" stroke-width="2"></path></g><g transform="translate(858 179)"><path d="M0 -24L20.8 -12L20.8 12L0 24L-20.8 12L-20.8 -12Z" fill="none" stroke="#297EA6" stroke-width="2"></path></g><g transform="translate(389 21)"><path d="M0 -29L25.1 -14.5L25.1 14.5L0 29L-25.1 14.5L-25.1 -14.5Z" fill="none" stroke="#297EA6" stroke-width="2"></path></g><g transform="translate(886 83)"><path d="M0 -17L14.7 -8.5L14.7 8.5L0 17L-14.7 8.5L-14.7 -8.5Z" fill="none" stroke="#297EA6" stroke-width="2"></path></g><g transform="translate(682 168)"><path d="M0 -35L30.3 -17.5L30.3 17.5L0 35L-30.3 17.5L-30.3 -17.5Z" fill="none" stroke="#297EA6" stroke-width="2"></path></g><g transform="translate(767 46)"><path d="M0 -21L18.2 -10.5L18.2 10.5L0 21L-18.2 10.5L-18.2 -10.5Z" fill="none" stroke="#297EA6" stroke-width="2"></path></g><g transform="translate(874 478)"><path d="M0 -28L24.2 -14L24.2 14L0 28L-24.2 14L-24.2 -14Z" fill="none" stroke="#297EA6" stroke-width="2"></path></g><g transform="translate(212 480)"><path d="M0 -17L14.7 -8.5L14.7 8.5L0 17L-14.7 8.5L-14.7 -8.5Z" fill="none" stroke="#297EA6" stroke-width="2"></path></g><g transform="translate(122 85)"><path d="M0 -27L23.4 -13.5L23.4 13.5L0 27L-23.4 13.5L-23.4 -13.5Z" fill="none" stroke="#297EA6" stroke-width="2"></path></g><g transform="translate(50 302)"><path d="M0 -29L25.1 -14.5L25.1 14.5L0 29L-25.1 14.5L-25.1 -14.5Z" fill="none" stroke="#297EA6" stroke-width="2"></path></g><g transform="translate(440 235)"><path d="M0 -26L22.5 -13L22.5 13L0 26L-22.5 13L-22.5 -13Z" fill="none" stroke="#297EA6" stroke-width="2"></path></g><g transform="translate(841 276)"><path d="M0 -19L16.5 -9.5L16.5 9.5L0 19L-16.5 9.5L-16.5 -9.5Z" fill="none" stroke="#297EA6" stroke-width="2"></path></g><g transform="translate(14 195)"><path d="M0 -28L24.2 -14L24.2 14L0 28L-24.2 14L-24.2 -14Z" fill="none" stroke="#297EA6" stroke-width="2"></path></g><g transform="translate(306 42)"><path d="M0 -38L32.9 -19L32.9 19L0 38L-32.9 19L-32.9 -19Z" fill="none" stroke="#297EA6" stroke-width="2"></path></g><g transform="translate(312 408)"><path d="M0 -16L13.9 -8L13.9 8L0 16L-13.9 8L-13.9 -8Z" fill="none" stroke="#297EA6" stroke-width="2"></path></g><g transform="translate(61 18)"><path d="M0 -19L16.5 -9.5L16.5 9.5L0 19L-16.5 9.5L-16.5 -9.5Z" fill="none" stroke="#297EA6" stroke-width="2"></path></g><g transform="translate(532 291)"><path d="M0 -38L32.9 -19L32.9 19L0 38L-32.9 19L-32.9 -19Z" fill="none" stroke="#297EA6" stroke-width="2"></path></g><g transform="translate(204 144)"><path d="M0 -30L26 -15L26 15L0 30L-26 15L-26 -15Z" fill="none" stroke="#297EA6" stroke-width="2"></path></g><g transform="translate(786 496)"><path d="M0 -38L32.9 -19L32.9 19L0 38L-32.9 19L-32.9 -19Z" fill="none" stroke="#297EA6" stroke-width="2"></path></g><g transform="translate(561 461)"><path d="M0 -34L29.4 -17L29.4 17L0 34L-29.4 17L-29.4 -17Z" fill="none" stroke="#297EA6" stroke-width="2"></path></g><g transform="translate(133 184)"><path d="M0 -27L23.4 -13.5L23.4 13.5L0 27L-23.4 13.5L-23.4 -13.5Z" fill="none" stroke="#297EA6" stroke-width="2"></path></g><g transform="translate(407 114)"><path d="M0 -33L28.6 -16.5L28.6 16.5L0 33L-28.6 16.5L-28.6 -16.5Z" fill="none" stroke="#297EA6" stroke-width="2"></path></g><g transform="translate(662 467)"><path d="M0 -28L24.2 -14L24.2 14L0 28L-24.2 14L-24.2 -14Z" fill="none" stroke="#297EA6" stroke-width="2"></path></g><g transform="translate(513 580)"><path d="M0 -39L33.8 -19.5L33.8 19.5L0 39L-33.8 19.5L-33.8 -19.5Z" fill="none" stroke="#297EA6" stroke-width="2"></path></g><g transform="translate(29 96)"><path d="M0 -15L13 -7.5L13 7.5L0 15L-13 7.5L-13 -7.5Z" fill="none" stroke="#297EA6" stroke-width="2"></path></g><g transform="translate(780 211)"><path d="M0 -37L32 -18.5L32 18.5L0 37L-32 18.5L-32 -18.5Z" fill="none" stroke="#297EA6" stroke-width="2"></path></g><g transform="translate(886 2)"><path d="M0 -16L13.9 -8L13.9 8L0 16L-13.9 8L-13.9 -8Z" fill="none" stroke="#297EA6" stroke-width="2"></path></g><g transform="translate(198 318)"><path d="M0 -17L14.7 -8.5L14.7 8.5L0 17L-14.7 8.5L-14.7 -8.5Z" fill="none" stroke="#297EA6" stroke-width="2"></path></g><g transform="translate(382 466)"><path d="M0 -15L13 -7.5L13 7.5L0 15L-13 7.5L-13 -7.5Z" fill="none" stroke="#297EA6" stroke-width="2"></path></g></g></svg>